<?xml version="1.0" standalone="no"?><!DOCTYPE svg PUBLIC "-//W3C//DTD SVG 1.1//EN" "http://www.w3.org/Graphics/SVG/1.1/DTD/svg11.dtd"><svg t="1696128217847" class="icon" viewBox="0 0 1024 1024" version="1.1" xmlns="http://www.w3.org/2000/svg" p-id="30994" xmlns:xlink="http://www.w3.org/1999/xlink" width="200" height="200"><path d="M668.571 64.077H145.537v895.481h729.271V256.411L668.571 64.077z m17.428 892.9c-58.584 0-110.933-25.782-145.557-66.241H216.777V132.899h392.926v187.849h193.865v311.197c43.388 33.413 71.201 84.9 71.201 142.67 0 100.716-84.515 182.362-188.77 182.362z" fill="#819292" p-id="30995"></path><path d="M302.253 418.389h429.738v67.101H302.253zM302.253 578.431h216.004v67.101H302.253zM302.253 738.473h135.854v67.101H302.253z" fill="#819292" p-id="30996"></path><path d="M803.568 631.945c-32.255-24.839-73.114-39.693-117.569-39.693-104.255 0-188.77 81.646-188.77 182.362 0 44.121 16.22 84.581 43.213 116.122 34.624 40.459 86.973 66.241 145.557 66.241 104.255 0 188.77-81.646 188.77-182.362 0-57.77-27.813-109.257-71.201-142.67z m-121.73 274.059l-37.781-36.498 0.903-0.873-67.916-65.611 37.781-36.498 44.459 42.95V651.611h53.43V803.18l44.459-42.95 37.781 36.498-113.116 109.276z" fill="#287CB0" p-id="30997"></path><path d="M794.954 796.728l-37.781-36.498-44.459 42.95V651.611h-53.43v157.863l-44.459-42.95-37.781 36.499 67.916 65.61-0.903 0.873 37.781 36.498z" fill="#FFFFFF" p-id="30998"></path></svg>